<svg id="Layer_1" data-name="Layer 1" xmlns="http://www.w3.org/2000/svg" viewBox="0 0 498 307.4"><defs><style>.cls-1{fill:#231f20;}</style></defs><title>logo</title><path class="cls-1" d="M557,298c-29.16,46.87-56.95,72.26-93.26,100.94S391.29,444,361.15,444c-42.38,0-52.24-47-50.91-83.27,0.27-7.33,2-21.52,2-21.52,3.93-29.08,13.48-50.45,29.6-70.87s33.72-30.62,52.79-30.62c16,0,26.42,11.35,26.42,29.24,0,20-10,36.2-30.95,51.44-19.93,14.49-40,21.77-69,21.89l-3.86,13.83c37,0.63,64.32.24,97-20.34,30.36-19.12,45.32-41.55,45.32-66.64q0-22.91-16.3-36.57t-43.43-13.66q-56.15,0-96,43.32a130.45,130.45,0,0,0-28.11,47c-25.36-12.29-48.94-21.63-66.54-21.63q-52.43,0-92.32,50.05T77,451.52q0,33,13.37,52.89t35.69,19.87q29.26,0,68.74-39c26.32-26,52.89-57.45,70.86-94.6l2.67-5c1.94,24.19,7.41,50.22,16.64,64,14.86,22.13,34.94,31.64,59.89,29.53,39.26-3.31,83.87-22.78,127.83-56.4S547.52,345.74,575,294.46ZM264.45,351.83c-56.72,88-100.56,133.28-120.63,133.28q-27.8,0-27.8-42.48c0-35.33,11.18-66.85,26.63-92.58s33.77-38.59,55-38.59c18.61,0,44.06,4.45,72,21.54q-0.94,6.22-1.46,12.69C266.18,349.08,264.94,351.06,264.45,351.83Z" transform="translate(-77 -216.88)"/></svg>
